<svg width="96" height="96" viewBox="0 0 96 96" fill="none" xmlns="http://www.w3.org/2000/svg">
  <rect width="96" height="96" rx="28" fill="#17362F"/>
  <path d="M27 57C37.5 48.2 49 43.8 61.5 43.8C65.6 43.8 70 44.3 74 45.5" stroke="#F2EBDD" stroke-width="5.5" stroke-linecap="round"/>
  <path d="M28 66.5C37.6 60.4 47.6 57.3 58.2 57.3C63.1 57.3 67.4 57.9 71.8 59.2" stroke="#C77743" stroke-width="5.5" stroke-linecap="round"/>
  <path d="M47.4 23C39.6 30.9 35.7 39.6 35.7 49.1C35.7 50.5 35.8 51.8 36.1 53.2C45.5 52.6 53.3 49.4 59.4 43.7C66.2 37.4 69.6 29.7 69.6 20.7C59.8 20.7 52.4 21.5 47.4 23Z" fill="#F2EBDD"/>
</svg>
